# Blender v2.82 (sub 7) OBJ File: ''
# www.blender.org
mtllib island.mtl
o Icosphere
v -5.895244 96.295525 16.992067
v -224.389725 56.370747 132.392365
v 85.690552 33.774460 253.312469
v 276.043396 25.809410 13.102727
v 128.423294 45.887756 -248.562302
v -225.014969 26.624100 -145.557419
v -81.889969 -6.807503 253.713821
v 222.105560 -3.112579 159.047623
v 282.169647 -3.703285 -161.592850
v -82.804024 -4.694046 -254.567123
v -280.701324 -9.926292 -1.692768
v 0.123271 -4.046890 -3.636957
v 48.028877 43.803894 164.743256
v -95.652428 54.211475 93.576569
v -192.751480 42.339066 181.793839
v -252.162460 27.418831 5.523578
v -123.934631 107.963951 -65.110077
v 126.107414 30.787956 30.173153
v 237.472305 47.405502 186.985443
v 25.312687 51.303188 -83.600662
v 218.238586 23.818169 -228.844101
v -105.327110 54.782024 -228.163635
v -302.903137 -7.873199 94.996002
v -293.683563 -6.445885 -98.925285
v 0.626074 -8.337639 299.630005
v -281.166534 -6.895073 278.472870
v 295.218262 -5.193710 80.889244
v 272.620819 -5.449814 266.668335
v 256.199982 -4.565941 -288.853607
v 289.466766 34.534973 -113.768616
v -277.201416 -5.476921 -280.957611
v -3.586220 -7.195625 -313.455841
v -238.614365 -7.692314 160.871780
v 98.879761 -4.783020 254.858536
v 310.250702 -7.547379 -5.397201
v 85.464981 -7.476196 -249.045868
v -209.635010 -6.351341 -149.006317
v -61.380028 -4.042618 151.651779
v -166.826614 -6.096680 -2.456977
v 132.630096 -4.156273 86.354301
v 131.526062 -8.186760 -94.073120
v -47.361572 -6.874359 -147.970001
vt 0.756429 0.324254
vt 0.803579 0.380463
vt 0.722167 0.424304
vt 0.873757 0.410900
vt 0.892116 0.326839
vt 0.682385 0.331029
vt 0.741315 0.256589
vt 0.823966 0.272124
vt 0.917434 0.390274
vt 0.698915 0.483392
vt 0.854817 0.443790
vt 0.744264 0.518948
vt 0.558713 0.833173
vt 0.546161 0.721935
vt 0.576558 0.785824
vt 0.688575 0.141658
vt 0.638161 0.152803
vt 0.618434 0.111854
vt 0.881058 0.223645
vt 0.817365 0.162838
vt 0.913102 0.134709
vt 0.900620 0.513803
vt 0.594790 0.487615
vt 0.599887 0.314720
vt 0.587168 0.361033
vt 0.595886 0.228057
vt 0.762669 0.103790
vt 0.917434 0.258577
vt 0.294124 0.132392
vt 0.383222 0.190298
vt 0.285469 0.202275
vt 0.128524 0.206401
vt 0.194141 0.137449
vt 0.179908 0.252811
vt 0.103737 0.425780
vt 0.084100 0.320749
vt 0.185254 0.375121
vt 0.307989 0.477063
vt 0.214797 0.478734
vt 0.285587 0.405909
vt 0.410763 0.299179
vt 0.375343 0.401382
vt 0.347822 0.303380
vt 0.255542 0.309568
vt 0.420501 0.364710
vt 0.416172 0.488690
vt 0.265730 0.519545
vt 0.121440 0.511243
vt 0.510262 0.816405
vt 0.532902 0.741199
vt 0.531727 0.848958
vt 0.530311 0.685615
vt 0.090148 0.261755
vt 0.097761 0.135039
vt 0.247289 0.103909
vt 0.403662 0.109177
vt 0.420501 0.232899
vt 0.532902 0.937123
vt 0.576558 0.664825
vt 0.616892 0.433042
vn -0.1165 0.9217 0.3700
vn -0.0476 0.9760 -0.2123
vn 0.4258 0.8904 0.1609
vn 0.4505 0.8587 -0.2443
vn 0.3039 0.9013 -0.3088
vn -0.6204 0.7831 -0.0429
vn -0.1144 0.8306 0.5450
vn 0.7525 0.6530 0.0858
vn 0.2835 0.9237 -0.2576
vn -0.2987 0.9480 -0.1096
vn -0.6522 0.7545 0.0732
vn 0.0840 0.6557 0.7504
vn 0.7017 0.7019 0.1225
vn 0.0592 0.7102 -0.7015
vn -0.4535 0.8905 -0.0363
vn 0.0194 -0.9995 -0.0232
vn 0.0126 -0.9999 -0.0012
vn 0.0173 -0.9995 -0.0277
vn -0.0160 -0.9998 -0.0151
vn 0.0336 -0.9994 -0.0081
vn 0.0124 -0.9998 0.0155
vn -0.0032 -1.0000 0.0027
vn -0.0031 -0.9998 -0.0194
vn -0.0147 -0.9996 0.0244
vn -0.0065 -1.0000 -0.0026
vn 0.0244 -0.9996 -0.0118
vn -0.0161 -0.9996 0.0224
vn -0.0075 -0.9997 0.0224
vn -0.0071 -0.9997 0.0231
vn -0.0007 -1.0000 -0.0002
vn -0.0020 -1.0000 -0.0041
vn 0.0114 -0.9996 -0.0248
vn 0.0123 -0.9999 0.0049
vn 0.0205 -0.9998 -0.0007
vn 0.0336 -0.9994 0.0050
vn -0.0187 -0.9993 -0.0333
vn -0.0022 -1.0000 -0.0055
vn 0.0053 -0.9999 -0.0093
vn -0.0172 -0.9997 0.0194
vn 0.0121 -0.9997 -0.0211
vn 0.0178 -0.9998 0.0031
vn 0.9838 0.0325 -0.1761
vn 0.7457 0.6568 0.1120
vn 0.0009 -0.9996 0.0274
vn -0.0024 -0.9998 -0.0206
vn 0.0014 -0.9971 -0.0762
vn 0.0115 -0.9985 -0.0540
vn 0.0013 -1.0000 0.0073
vn -0.0030 -1.0000 0.0057
vn -0.0153 -0.9997 0.0177
vn -0.0015 -0.9992 0.0405
vn -0.0713 0.7646 -0.6406
vn -0.0225 0.7958 -0.6051
vn 0.9777 0.0635 -0.2000
vn 0.2805 0.9241 -0.2597
vn -0.2178 0.9750 0.0440
vn -0.0344 -0.9994 -0.0056
vn 0.7586 0.6449 0.0932
vn 0.1430 0.8527 0.5025
vn -0.0030 -0.9996 -0.0279
vn -0.0279 0.9009 0.4332
vn -0.1343 0.9273 0.3494
vn -0.1551 -0.9878 -0.0146
vn -0.5973 0.8017 -0.0225
vn -0.4816 0.8716 -0.0911
vn -0.4229 0.8462 -0.3243
vn 0.3140 0.9126 -0.2618
vn 0.0372 0.9993 -0.0096
vn 0.2159 0.9709 0.1031
vn 0.1645 0.9859 0.0320
vn 0.0314 0.9994 -0.0157
vn 0.0194 0.9927 -0.1190
vn -0.0071 0.9949 -0.1004
vn -0.0337 0.9914 0.1266
vn -0.5704 0.8144 -0.1068
vn -0.3486 0.8671 0.3558
vn -0.1450 0.9290 0.3405
vn 0.0019 0.9937 0.1117
vn 0.0037 0.9905 0.1374
vn 0.0834 0.9714 0.2225
usemtl Material
s off
f 1/1/1 14/2/1 13/3/1
f 2/4/2 14/2/2 16/5/2
f 1/1/3 13/3/3 18/6/3
f 1/1/4 18/6/4 20/7/4
f 1/1/5 20/7/5 17/8/5
f 2/4/6 16/5/6 23/9/6
f 3/10/7 15/11/7 25/12/7
f 4/13/8 19/14/8 27/15/8
f 5/16/9 21/17/9 29/18/9
f 6/19/10 22/20/10 31/21/10
f 2/4/11 23/9/11 26/22/11
f 3/10/12 25/12/12 28/23/12
f 4/24/13 27/25/13 30/26/13
f 5/16/14 29/18/14 32/27/14
f 6/19/15 31/21/15 24/28/15
f 7/29/16 33/30/16 38/31/16
f 8/32/17 34/33/17 40/34/17
f 9/35/18 35/36/18 41/37/18
f 10/38/19 36/39/19 42/40/19
f 11/41/20 37/42/20 39/43/20
f 39/43/21 42/40/21 12/44/21
f 39/43/22 37/42/22 42/40/22
f 37/42/23 10/38/23 42/40/23
f 42/40/24 41/37/24 12/44/24
f 42/40/25 36/39/25 41/37/25
f 36/39/26 9/35/26 41/37/26
f 41/37/27 40/34/27 12/44/27
f 41/37/28 35/36/28 40/34/28
f 35/36/29 8/32/29 40/34/29
f 40/34/30 38/31/30 12/44/30
f 40/34/31 34/33/31 38/31/31
f 34/33/32 7/29/32 38/31/32
f 38/31/33 39/43/33 12/44/33
f 38/31/34 33/30/34 39/43/34
f 33/30/35 11/41/35 39/43/35
f 24/45/36 37/42/36 11/41/36
f 24/45/37 31/46/37 37/42/37
f 31/46/38 10/38/38 37/42/38
f 32/47/39 36/39/39 10/38/39
f 32/47/40 29/48/40 36/39/40
f 29/48/41 9/35/41 36/39/41
f 30/49/42 35/50/42 9/51/42
f 30/49/43 27/52/43 35/50/43
f 27/53/44 8/32/44 35/36/44
f 28/54/45 34/33/45 8/32/45
f 28/54/46 25/55/46 34/33/46
f 25/55/47 7/29/47 34/33/47
f 26/56/48 33/30/48 7/29/48
f 26/56/49 23/57/49 33/30/49
f 23/57/50 11/41/50 33/30/50
f 31/46/51 32/47/51 10/38/51
f 31/21/52 22/20/52 32/27/52
f 22/20/53 5/16/53 32/27/53
f 29/58/54 30/49/54 9/51/54
f 29/18/55 21/17/55 30/26/55
f 21/17/56 4/24/56 30/26/56
f 27/53/57 28/54/57 8/32/57
f 27/15/58 19/14/58 28/59/58
f 19/60/59 3/10/59 28/23/59
f 25/55/60 26/56/60 7/29/60
f 25/12/61 15/11/61 26/22/61
f 15/11/62 2/4/62 26/22/62
f 23/57/63 24/45/63 11/41/63
f 23/9/64 16/5/64 24/28/64
f 16/5/65 6/19/65 24/28/65
f 17/8/66 22/20/66 6/19/66
f 17/8/67 20/7/67 22/20/67
f 20/7/68 5/16/68 22/20/68
f 20/7/69 21/17/69 5/16/69
f 20/7/70 18/6/70 21/17/70
f 18/6/71 4/24/71 21/17/71
f 18/6/72 19/60/72 4/24/72
f 18/6/73 13/3/73 19/60/73
f 13/3/74 3/10/74 19/60/74
f 16/5/75 17/8/75 6/19/75
f 16/5/76 14/2/76 17/8/76
f 14/2/77 1/1/77 17/8/77
f 13/3/78 15/11/78 3/10/78
f 13/3/79 14/2/79 15/11/79
f 14/2/80 2/4/80 15/11/80
