# Blender v2.82 (sub 7) OBJ File: ''
# www.blender.org
mtllib LV0.mtl
o LV0.005
v -50.000000 -0.000016 50.000000
v 50.000000 -0.000016 50.000000
v 50.000000 0.000016 -50.000000
v -50.000000 0.000016 -50.000000
v -50.000000 -9.999983 -50.000000
v 50.000000 -9.999983 -50.000000
v 50.000000 -10.000017 50.000000
v -50.000000 -10.000017 50.000000
vt 0.499837 0.000163
vt 0.000163 0.000163
vt 0.000163 0.499837
vt 0.499837 0.499837
vt 0.499837 0.999837
vt 0.000163 0.999837
vt 0.000163 0.500163
vt 0.499837 0.500163
vt 0.550457 0.100751
vt 0.550457 0.600424
vt 0.600424 0.600424
vt 0.600424 0.100751
vt 0.500163 0.100424
vt 0.999837 0.100424
vt 0.999837 0.050457
vt 0.500163 0.050457
vt 0.550130 0.100751
vt 0.550130 0.600424
vt 0.500163 0.600424
vt 0.500163 0.100751
vt 0.500163 0.000163
vt 0.999837 0.000163
vt 0.999837 0.050131
vt 0.500163 0.050131
vn 0.0000 1.0000 0.0000
vn 0.0000 -1.0000 -0.0000
vn -1.0000 0.0000 0.0000
vn 0.0000 0.0000 -1.0000
vn 1.0000 0.0000 0.0000
vn 0.0000 0.0000 1.0000
usemtl Default_OBJ.005
s 1
f 1/1/1 2/2/1 3/3/1
f 3/3/1 4/4/1 1/1/1
f 5/5/2 6/6/2 7/7/2
f 7/7/2 8/8/2 5/5/2
f 5/9/3 8/10/3 1/11/3
f 1/11/3 4/12/3 5/9/3
f 6/13/4 5/14/4 4/15/4
f 4/15/4 3/16/4 6/13/4
f 3/17/5 2/18/5 7/19/5
f 7/19/5 6/20/5 3/17/5
f 2/21/6 1/22/6 8/23/6
f 8/23/6 7/24/6 2/21/6
